<?xml version="1.0" standalone="no"?><!DOCTYPE svg PUBLIC "-//W3C//DTD SVG 1.1//EN" "http://www.w3.org/Graphics/SVG/1.1/DTD/svg11.dtd"><svg t="1508851455581" class="icon" style="" viewBox="0 0 1024 1024" version="1.1" xmlns="http://www.w3.org/2000/svg" p-id="7915" xmlns:xlink="http://www.w3.org/1999/xlink" width="200" height="200"><defs><style type="text/css"></style></defs><path d="M1015.882 951.784a8.014 8.014 0 0 1-7.968-7.404l-47.988-655.872a8.012 8.012 0 0 1 7.404-8.56c3.952-0.304 8.232 2.982 8.56 7.388l47.99 655.856a8.008 8.008 0 0 1-7.404 8.56c-0.186 0.032-0.39 0.032-0.594 0.032z" fill="" p-id="7916"></path><path d="M1015.898 951.784H376.022c-4.42 0-7.998-3.576-7.998-7.998s3.578-7.998 7.998-7.998h639.876c4.42 0 7.998 3.576 7.998 7.998s-3.578 7.998-7.998 7.998z" fill="" p-id="7917"></path><path d="M376.038 951.784c-0.204 0-0.406 0-0.592-0.032a8.008 8.008 0 0 1-7.406-8.56l47.99-655.856c0.328-4.406 4.532-7.716 8.562-7.388a8.014 8.014 0 0 1 7.406 8.56L384.008 944.38a8.022 8.022 0 0 1-7.97 7.404z" fill="" p-id="7918"></path><path d="M520.008 295.92h-95.996c-4.42 0-8-3.578-8-7.998a7.994 7.994 0 0 1 8-7.998h95.996a7.986 7.986 0 0 1 7.992 7.998 7.988 7.988 0 0 1-7.992 7.998zM967.908 295.92h-95.98a7.994 7.994 0 0 1-7.998-7.998 7.994 7.994 0 0 1 7.998-7.998h95.98a7.994 7.994 0 0 1 7.998 7.998 7.994 7.994 0 0 1-7.998 7.998zM791.946 295.92h-191.96a7.994 7.994 0 0 1-7.998-7.998 7.992 7.992 0 0 1 7.998-7.998h191.96a7.992 7.992 0 0 1 7.996 7.998 7.992 7.992 0 0 1-7.996 7.998zM967.908 919.79H424.012c-4.42 0-8-3.576-8-7.996 0-4.422 3.578-8 8-8h543.896a7.994 7.994 0 0 1 7.998 8 7.994 7.994 0 0 1-7.998 7.996z" fill="" p-id="7919"></path><path d="M552.01 375.902a7.99 7.99 0 0 1-7.982-8.662c1-12.042 26.056-295.024 151.938-295.024 125.878 0 150.938 282.98 151.938 295.024a7.988 7.988 0 0 1-7.296 8.63 7.926 7.926 0 0 1-8.638-7.302c-0.234-2.802-24.728-280.356-136.002-280.356-111.32 0-135.77 277.552-136.004 280.356a7.992 7.992 0 0 1-7.954 7.334zM344.028 903.792H8.098c-4.422 0-8-3.576-8-7.998a7.994 7.994 0 0 1 8-7.998h335.93a7.994 7.994 0 0 1 7.998 7.998 7.992 7.992 0 0 1-7.998 7.998z" fill="" p-id="7920"></path><path d="M8.114 903.792c-0.218 0-0.422 0-0.624-0.032a7.988 7.988 0 0 1-7.358-8.592l31.994-415.906c0.328-4.412 4.546-7.584 8.576-7.358a7.994 7.994 0 0 1 7.358 8.592L16.066 896.42a7.984 7.984 0 0 1-7.952 7.372z" fill="" p-id="7921"></path><path d="M376.022 487.88H40.09a7.994 7.994 0 0 1-7.998-8 7.994 7.994 0 0 1 7.998-7.998H376.02c4.42 0 8 3.578 8 7.998 0 4.422-3.578 8-7.998 8zM344.028 871.8H56.088a7.994 7.994 0 0 1-7.998-8 7.992 7.992 0 0 1 7.998-7.996h287.94a7.992 7.992 0 0 1 7.998 7.996c0 4.422-3.576 8-7.998 8zM320.034 711.834c-125.084 0-159.482-164.732-159.81-166.404a7.998 7.998 0 0 1 6.264-9.404c4.216-0.842 8.544 1.922 9.42 6.282 0.312 1.53 32.18 153.53 144.126 153.53 7.64 0 15.2-0.718 22.48-2.124 4.266-0.874 8.514 2 9.374 6.344a8.01 8.01 0 0 1-6.342 9.374 135.46 135.46 0 0 1-25.512 2.402zM376.022 455.902H56.088a7.994 7.994 0 0 1-7.998-7.998 7.994 7.994 0 0 1 7.998-7.998h319.934a7.998 7.998 0 1 1 0 15.996zM951.91 263.926h-95.978a7.992 7.992 0 0 1-7.998-7.998 7.994 7.994 0 0 1 7.998-7.998h95.978c4.422 0 8 3.578 8 7.998a7.994 7.994 0 0 1-8 7.998zM535.996 263.926h-95.988a7.992 7.992 0 0 1-7.998-7.998 7.994 7.994 0 0 1 7.998-7.998h95.988c4.422 0 8 3.578 8 7.998a7.994 7.994 0 0 1-8 7.998zM775.948 263.926H615.98a7.992 7.992 0 0 1-7.998-7.998 7.994 7.994 0 0 1 7.998-7.998h159.966a7.994 7.994 0 0 1 7.998 7.998 7.988 7.988 0 0 1-7.996 7.998z" fill="" p-id="7922"></path><path d="M551.962 791.942a7.994 7.994 0 0 1-5.654-13.652l287.94-287.942a7.996 7.996 0 1 1 11.31 11.31l-287.942 287.94a7.968 7.968 0 0 1-5.654 2.344z" fill="" p-id="7923"></path><path d="M783.946 791.942c-35.29 0-63.986-28.712-63.986-63.986s28.698-63.986 63.986-63.986 63.988 28.712 63.988 63.986-28.7 63.986-63.988 63.986z m0-111.978c-26.462 0-47.988 21.528-47.988 47.99s21.526 47.99 47.988 47.99c26.464 0 47.99-21.528 47.99-47.99s-21.526-47.99-47.99-47.99z" fill="" p-id="7924"></path><path d="M607.982 615.978c-35.29 0-63.986-28.712-63.986-63.986 0-35.282 28.698-63.986 63.986-63.986s63.986 28.706 63.986 63.986c0 35.274-28.696 63.986-63.986 63.986z m0-111.976c-26.462 0-47.99 21.526-47.99 47.99 0 26.462 21.528 47.988 47.99 47.988s47.99-21.526 47.99-47.988c0-26.464-21.526-47.99-47.99-47.99z" fill="" p-id="7925"></path></svg>