<?xml version="1.0" standalone="no"?><!DOCTYPE svg PUBLIC "-//W3C//DTD SVG 1.1//EN" "http://www.w3.org/Graphics/SVG/1.1/DTD/svg11.dtd"><svg t="1508851467655" class="icon" style="" viewBox="0 0 1024 1024" version="1.1" xmlns="http://www.w3.org/2000/svg" p-id="8157" xmlns:xlink="http://www.w3.org/1999/xlink" width="200" height="200"><defs><style type="text/css"></style></defs><path d="M615.041306 220.904179c101.755522 37.051871 171.743526 122.695436 193.256492 221.24801-49.972135-65.043389-124.521015-120.334669-215.752856-153.527652-94.284363-34.31555-190.088336-39.098483-271.90883-19.221784C400.831596 205.248617 511.508301 183.197392 615.041306 220.904179L615.041306 220.904179zM512.011768 65.564251c-246.585071 0-446.459285 199.850677-446.459285 446.447005 0 180.911326 107.636462 336.730161 262.34501 406.788773L327.897493 679.136601 278.322401 679.136601l-21.911032 0 0-21.922289L256.411369 404.842445l43.809785 0L300.221154 635.292024l19.280112 0L319.501266 404.842445l43.821041 0L363.322307 635.292024l16.97665 0L380.298957 404.842445l43.822065 0L424.121022 635.292024l19.221784 0 0-231.093239 43.809785 0 0 253.014504 0 21.922289-21.898753 0-49.725518 0L415.52832 947.983699c31.06553 6.827499 63.335491 10.45205 96.482425 10.45205 34.923394 0 68.923766-3.998057 101.533464-11.57564L613.544209 709.652616c-50.883901-22.484084-87.151919-80.779791-87.151919-149.142785 0-87.842651 59.862389-159.093415 133.721561-159.093415 73.834612 0 133.686768 71.250764 133.686768 159.093415 0 70.771857-38.887682 130.775462-92.624561 151.387919l0 204.539466c151.983483-71.181179 257.270435-225.527476 257.270435-404.425959C958.446493 265.414929 758.548744 65.564251 512.011768 65.564251z" p-id="8158"></path></svg>