<?xml version="1.0" standalone="no"?><!DOCTYPE svg PUBLIC "-//W3C//DTD SVG 1.1//EN" "http://www.w3.org/Graphics/SVG/1.1/DTD/svg11.dtd"><svg t="1508851463251" class="icon" style="" viewBox="0 0 1024 1024" version="1.1" xmlns="http://www.w3.org/2000/svg" p-id="8037" xmlns:xlink="http://www.w3.org/1999/xlink" width="200" height="200"><defs><style type="text/css"></style></defs><path d="M953.344 599.04h-60.416c-11.264 0-19.968 9.216-19.968 20.48s9.216 20.48 19.968 20.48h60.416c11.264 0 19.968-9.216 19.968-20.48s-8.704-20.48-19.968-20.48z" p-id="8038"></path><path d="M891.392 665.6H880.64c-13.312 0-24.064-9.728-25.088-22.528l-5.12-69.632h12.288c11.264 0 19.968-9.216 19.968-20.48s-9.216-20.48-19.968-20.48h-15.36l-2.048-25.6h87.552c11.264 0 18.944-9.216 18.944-20.48s-7.68-20.48-18.944-20.48H593.92c-12.288 0-22.528 8.192-24.576 19.968-5.632 28.672-15.36 79.872-18.432 97.28 0 1.024-0.512 2.56-0.512 2.56-8.192 41.984-43.008 74.752-86.016 79.872H343.552c-16.384 0-30.72-9.216-37.376-24.064-14.848-36.352-39.936-107.52-39.936-183.808V305.152c0-5.12 4.096-9.728 9.728-9.728l1.536-1.024c18.944-1.024 35.328-12.288 44.544-27.648h36.864c8.192 0 15.36-7.168 15.36-15.36s-6.656-15.36-15.36-15.36h-30.208c-2.048-20.48-20.992-43.008-45.568-46.08l-126.976-15.36c-14.848-2.048-27.648 10.24-27.648 25.6v75.776c0 14.336 11.776 26.112 26.112 25.088l17.92-1.024c7.168-0.512 12.288 6.656 9.728 13.824l-97.28 258.56c-3.072 8.704-9.216 15.872-17.408 20.48C39.936 609.28 17.92 632.32 3.072 660.48c-7.168 13.824-0.512 30.72 14.336 35.328l40.96 13.824c-3.584 10.752-5.632 22.016-5.632 34.304 0 58.368 47.616 105.984 105.984 105.984s105.984-47.616 105.984-105.984v-1.024l373.248 0.512v0.512c0 58.368 47.616 105.984 105.984 105.984s105.984-47.616 105.984-105.984v-1.024h44.544c21.504 0 38.4-17.92 37.888-39.424-2.048-21.504-19.968-37.888-40.96-37.888zM158.208 814.08c-38.912 0-70.656-31.744-70.656-70.656s31.744-70.656 70.656-70.656c38.912 0 70.656 31.744 70.656 70.656S197.12 814.08 158.208 814.08z m584.704 0c-38.912 0-70.656-31.744-70.656-70.656s31.744-70.656 70.656-70.656c38.912 0 70.656 31.744 70.656 70.656s-31.744 70.656-70.656 70.656z" p-id="8039"></path><path d="M1004.544 337.92h-407.04c-13.824 0-23.552 12.8-23.552 26.624V414.72c0 13.824 9.728 25.088 23.552 25.088h270.336c11.264 0 19.968-9.216 19.968-20.48s-9.216-20.48-19.968-20.48H844.8v-20.48h159.744c10.752 0 19.456-9.728 19.456-20.48s-8.704-19.968-19.456-19.968z" p-id="8040"></path></svg>